<?xml version="1.0" standalone="no"?>
<!DOCTYPE svg PUBLIC "-//W3C//DTD SVG 20010904//EN"
 "http://www.w3.org/TR/2001/REC-SVG-20010904/DTD/svg10.dtd">
<svg version="1.0" xmlns="http://www.w3.org/2000/svg"
 width="176.000000pt" height="450.000000pt" viewBox="0 0 176.000000 450.000000"
 preserveAspectRatio="xMidYMid meet">
<metadata>
Created by potrace 1.10, written by Peter Selinger 2001-2011
</metadata>
<g transform="translate(0.000000,450.000000) scale(0.050000,-0.050000)"
fill="#000000" stroke="none">
<path d="M1571 7142 c-6 -11 -278 -161 -603 -333 -428 -227 -587 -321 -580
-342 58 -150 34 -489 -40 -557 l-50 -46 106 -14 c213 -28 279 -80 683 -536
146 -166 199 -203 324 -225 l79 -14 -68 48 c-38 26 -84 79 -104 117 -74 146
-111 787 -49 839 28 23 830 461 844 461 4 0 7 -382 7 -850 l0 -850 -115 0
c-202 -1 -340 -78 -774 -429 -394 -319 -604 -428 -886 -461 l-125 -14 80 -91
c115 -130 120 -165 120 -871 0 -587 3 -636 35 -647 19 -6 314 -119 655 -250
341 -132 634 -244 650 -249 22 -7 46 29 85 126 53 128 240 406 274 406 9 0
126 -117 261 -260 l245 -261 67 95 c37 52 201 235 364 405 348 365 390 419
244 311 -94 -69 -215 -68 -298 2 l-62 51 -5 1961 -5 1960 -120 47 c-66 26
-358 138 -650 250 -291 112 -540 212 -553 222 -15 12 -28 12 -36 -1z m549
-3504 c0 -1003 -2 -1062 -35 -1049 -19 7 -213 81 -430 165 l-395 152 0 535 0
535 89 177 c162 323 437 541 686 546 l85 1 0 -1062z"/>
</g>
</svg>
