<?xml version="1.0" standalone="no"?>
<!DOCTYPE svg PUBLIC "-//W3C//DTD SVG 20010904//EN"
 "http://www.w3.org/TR/2001/REC-SVG-20010904/DTD/svg10.dtd">
<svg version="1.0" xmlns="http://www.w3.org/2000/svg"
 width="450.000000pt" height="543.000000pt" viewBox="0 0 450.000000 543.000000"
 preserveAspectRatio="xMidYMid meet">
<metadata>
Created by potrace 1.10, written by Peter Selinger 2001-2011
</metadata>
<g transform="translate(0.000000,543.000000) scale(0.100000,-0.100000)"
fill="#000000" stroke="none">
<path d="M1890 4620 c0 -132 -3 -240 -7 -240 -5 0 -53 43 -108 95 -55 52 -103
95 -106 95 -11 0 -156 -115 -268 -214 -369 -325 -568 -612 -611 -880 -25 -156
31 -315 137 -387 55 -38 188 -69 224 -52 23 10 22 11 -16 17 -175 28 -253 85
-292 215 -49 163 6 370 151 578 62 88 259 304 294 322 50 24 86 13 157 -50 17
-14 68 -59 114 -99 136 -119 126 -57 129 -774 3 -740 6 -720 -114 -765 -27
-10 -50 -23 -51 -27 -2 -5 21 -19 50 -30 37 -15 60 -33 82 -64 l30 -42 0 -299
0 -299 -160 -3 c-139 -3 -172 -7 -250 -31 -284 -85 -460 -316 -473 -618 -5
-116 1 -158 22 -158 9 0 15 21 19 65 15 157 80 284 172 336 159 89 371 75 620
-41 44 -21 119 -54 168 -75 l87 -37 0 -249 0 -249 145 0 144 0 6 33 c4 18 5
101 3 186 -5 175 -12 166 94 118 l56 -26 41 44 c23 25 44 45 46 45 3 0 5 -90
5 -200 l0 -200 150 0 150 0 0 335 0 335 60 39 c33 22 101 52 150 68 l90 28 -2
710 -3 710 -167 64 c-92 35 -166 67 -163 71 3 4 51 36 107 70 57 34 130 79
163 99 l60 38 0 522 0 523 -147 56 -148 56 0 238 0 238 -150 0 -150 0 0 -180
c0 -99 -3 -180 -6 -180 -12 0 -51 24 -76 48 -32 29 -29 31 -51 -28 -20 -54
-85 -160 -98 -160 -5 0 -9 104 -9 250 l0 250 -150 0 -150 0 0 -240z m395 -544
c66 -26 162 -63 213 -83 l92 -36 0 -453 0 -454 -66 25 c-37 14 -68 25 -70 25
-2 0 -19 14 -39 31 -20 18 -37 30 -40 28 -2 -2 -27 -40 -56 -84 -66 -101 -169
-226 -180 -219 -11 6 -12 1257 -2 1268 4 3 12 5 17 2 6 -2 65 -25 131 -50z
m16 -1397 c84 -33 184 -72 222 -86 l67 -26 0 -593 c0 -327 -3 -594 -7 -594 -5
0 -107 38 -228 84 l-220 83 -3 597 c-1 328 1 596 6 596 4 0 78 -27 163 -61z"/>
</g>
</svg>
