<?xml version="1.0" standalone="no"?>
<!DOCTYPE svg PUBLIC "-//W3C//DTD SVG 20010904//EN"
 "http://www.w3.org/TR/2001/REC-SVG-20010904/DTD/svg10.dtd">
<svg version="1.0" xmlns="http://www.w3.org/2000/svg"
 width="170.000000pt" height="450.000000pt" viewBox="0 0 170.000000 450.000000"
 preserveAspectRatio="xMidYMid meet">
<metadata>
Created by potrace 1.10, written by Peter Selinger 2001-2011
</metadata>
<g transform="translate(0.000000,450.000000) scale(0.100000,-0.100000)"
fill="#000000" stroke="none">
<path d="M485 3464 c-187 -95 -352 -173 -367 -173 -25 -1 -52 23 -85 75 -11
18 -12 18 -12 -3 -2 -61 69 -148 134 -164 42 -11 43 -12 49 -62 3 -29 6 -204
6 -390 0 -313 -1 -341 -19 -375 -11 -21 -35 -46 -54 -57 l-35 -18 31 -16 c18
-9 42 -31 54 -50 l23 -34 0 -451 0 -451 -49 -22 c-61 -29 -102 -85 -108 -150
l-4 -48 22 35 c12 19 28 45 36 57 8 13 23 23 37 23 16 0 599 -220 733 -277 7
-3 21 14 34 41 12 26 34 55 49 66 22 16 413 172 487 194 22 7 22 8 25 344 3
245 7 345 16 367 16 36 50 74 77 85 17 8 16 9 -8 9 -59 2 -118 -44 -217 -169
-119 -151 -193 -204 -295 -216 -47 -6 -54 -9 -39 -17 34 -19 54 -51 51 -82 -2
-29 -7 -31 -212 -110 l-210 -81 -8 150 c-4 83 -6 290 -5 460 l3 309 52 13
c117 30 177 79 373 304 147 168 262 281 318 309 24 12 70 27 102 33 l59 10
-27 23 c-27 23 -27 24 -32 195 l-5 172 -315 159 c-173 87 -317 158 -320 157
-3 0 -158 -79 -345 -174z m561 -266 c5 -46 9 -157 9 -248 0 -149 -2 -171 -24
-223 -66 -165 -256 -362 -389 -402 l-22 -6 2 377 3 376 200 104 c110 57 203
104 206 104 4 0 11 -37 15 -82z"/>
</g>
</svg>
