<?xml version="1.0" standalone="no"?>
<!DOCTYPE svg PUBLIC "-//W3C//DTD SVG 20010904//EN"
 "http://www.w3.org/TR/2001/REC-SVG-20010904/DTD/svg10.dtd">
<svg version="1.0" xmlns="http://www.w3.org/2000/svg"
 width="90.000000pt" height="450.000000pt" viewBox="0 0 90.000000 450.000000"
 preserveAspectRatio="xMidYMid meet">
<metadata>
Created by potrace 1.10, written by Peter Selinger 2001-2011
</metadata>
<g transform="translate(0.000000,450.000000) scale(0.100000,-0.100000)"
fill="#000000" stroke="none">
<path d="M285 4140 l-120 -120 120 -120 120 -120 122 122 123 123 -117 117
c-65 65 -120 118 -123 118 -3 0 -59 -54 -125 -120z"/>
<path d="M243 3529 l-33 -51 0 -1162 0 -1161 78 -75 c42 -41 100 -97 128 -123
l51 -49 22 44 c11 23 43 70 70 104 l50 60 3 545 3 545 27 41 c15 23 37 44 48
48 19 6 18 9 -20 43 -28 25 -44 50 -50 77 -5 22 -10 217 -10 434 l0 393 45 40
c73 64 74 73 6 73 -80 0 -183 52 -294 150 -48 41 -87 75 -89 75 -2 0 -18 -23
-35 -51z"/>
</g>
</svg>
