<?xml version="1.0" standalone="no"?>
<!DOCTYPE svg PUBLIC "-//W3C//DTD SVG 20010904//EN"
 "http://www.w3.org/TR/2001/REC-SVG-20010904/DTD/svg10.dtd">
<svg version="1.0" xmlns="http://www.w3.org/2000/svg"
 width="99.000000pt" height="450.000000pt" viewBox="0 0 99.000000 450.000000"
 preserveAspectRatio="xMidYMid meet">
<metadata>
Created by potrace 1.10, written by Peter Selinger 2001-2011
</metadata>
<g transform="translate(0.000000,450.000000) scale(0.100000,-0.100000)"
fill="#000000" stroke="none">
<path d="M627 3980 c-76 -227 -203 -379 -329 -396 l-48 -7 -2 -321 -3 -321
-52 -3 -52 -3 -55 -87 c-83 -132 -87 -122 48 -122 l116 0 1 -787 1 -788 131
-122 132 -121 23 49 c24 50 138 183 261 303 70 69 90 99 50 74 -54 -33 -66
-38 -88 -38 -13 0 -41 10 -62 22 l-39 22 0 693 0 693 63 0 62 0 93 105 93 105
-155 0 -156 0 0 158 c0 176 9 205 71 237 l31 17 -28 17 c-71 44 -68 29 -74
385 l-5 321 -28 -85z"/>
</g>
</svg>
