<?xml version="1.0" standalone="no"?>
<!DOCTYPE svg PUBLIC "-//W3C//DTD SVG 20010904//EN"
 "http://www.w3.org/TR/2001/REC-SVG-20010904/DTD/svg10.dtd">
<svg version="1.0" xmlns="http://www.w3.org/2000/svg"
 width="171.000000pt" height="450.000000pt" viewBox="0 0 171.000000 450.000000"
 preserveAspectRatio="xMidYMid meet">
<metadata>
Created by potrace 1.10, written by Peter Selinger 2001-2011
</metadata>
<g transform="translate(0.000000,450.000000) scale(0.100000,-0.100000)"
fill="#000000" stroke="none">
<path d="M251 3522 l-31 -49 0 -382 0 -382 48 -62 c27 -34 106 -146 176 -249
70 -103 131 -190 136 -193 11 -7 -84 -154 -247 -382 l-123 -172 0 -249 0 -249
126 -117 126 -116 28 42 c16 24 101 119 190 211 89 93 159 171 156 174 -3 3
-20 -7 -38 -22 -27 -23 -39 -26 -79 -23 -25 3 -58 13 -72 24 -25 18 -26 24
-27 106 l0 87 102 151 c57 82 106 150 110 150 4 0 57 -73 117 -162 l111 -163
0 -171 0 -171 125 -118 c69 -65 127 -116 128 -114 2 2 15 23 30 46 14 23 96
114 182 202 85 88 155 165 155 170 0 6 -16 -1 -36 -14 -44 -30 -97 -32 -140
-6 l-31 19 -6 148 -7 149 -116 170 c-64 94 -149 218 -191 277 l-74 108 137
202 c76 112 163 237 195 278 l57 75 4 245 4 245 52 49 c29 27 52 51 52 55 0 3
-30 6 -68 6 -58 1 -76 6 -139 39 -40 21 -106 70 -151 112 -44 41 -82 74 -85
74 -2 0 -21 -25 -41 -55 l-36 -55 0 -280 0 -281 -110 -162 c-61 -89 -114 -163
-118 -164 -4 -1 -53 66 -109 150 l-102 152 6 188 c3 103 9 187 13 187 9 0 90
82 90 91 0 3 -19 4 -43 2 -87 -10 -192 42 -321 160 -41 37 -77 67 -79 67 -3 0
-19 -22 -36 -48z"/>
</g>
</svg>
