<?xml version="1.0" standalone="no"?>
<!DOCTYPE svg PUBLIC "-//W3C//DTD SVG 20010904//EN"
 "http://www.w3.org/TR/2001/REC-SVG-20010904/DTD/svg10.dtd">
<svg version="1.0" xmlns="http://www.w3.org/2000/svg"
 width="180.000000pt" height="450.000000pt" viewBox="0 0 180.000000 450.000000"
 preserveAspectRatio="xMidYMid meet">
<metadata>
Created by potrace 1.10, written by Peter Selinger 2001-2011
</metadata>
<g transform="translate(0.000000,450.000000) scale(0.100000,-0.100000)"
fill="#000000" stroke="none">
<path d="M396 3515 l-36 -55 0 -522 c0 -503 -1 -523 -20 -563 -13 -26 -34 -49
-55 -61 l-34 -18 37 -21 c68 -38 72 -56 72 -357 0 -182 3 -268 11 -268 13 0
601 -225 639 -245 l27 -14 33 76 c36 82 116 197 131 187 5 -3 9 -171 9 -394
l0 -390 -52 -41 c-136 -108 -338 -221 -503 -280 -76 -27 -105 -32 -185 -33
-90 -1 -98 1 -153 32 l-57 32 37 -60 c93 -149 254 -305 345 -336 147 -48 432
66 740 298 l107 81 -57 42 c-75 56 -129 113 -116 124 5 4 31 14 59 20 63 16
193 76 222 103 l23 21 0 661 c0 642 1 662 20 694 11 18 34 41 51 51 l31 19
-31 17 c-18 9 -41 30 -51 48 -19 30 -20 53 -20 454 l0 421 56 54 55 53 -68 0
c-91 0 -170 39 -289 146 -49 43 -91 79 -94 79 -3 0 -20 -24 -38 -53 l-32 -53
0 -842 c0 -667 -3 -842 -12 -842 -7 0 -105 36 -218 79 l-205 78 -3 650 -2 650
45 37 c25 21 49 45 55 55 8 17 5 18 -35 13 -89 -10 -199 46 -323 162 -38 36
-72 66 -74 66 -3 0 -22 -25 -42 -55z"/>
</g>
</svg>
